<?xml version="1.0" encoding="iso-8859-1"?>
<!-- Uploaded to: SVG Repo, www.svgrepo.com, Generator: SVG Repo Mixer Tools -->
<svg fill="#000000" height="800px" width="800px" version="1.1" id="Layer_1" xmlns="http://www.w3.org/2000/svg" xmlns:xlink="http://www.w3.org/1999/xlink" 
	 viewBox="0 0 512 512" xml:space="preserve">
	<path d="M496.955,50.312h-87.059v409.896c0,0.497,0.2,0.987,0.166,1.48h86.893c8.173,0,15.045-6.625,15.045-14.798V65.11
				C512,56.937,505.128,50.312,496.955,50.312z"/>
	<path d="M186.451,50.312v411.376h7.646h109.256v-57.144c0-8.171,5.959-15.364,14.132-15.364h48.018V50.312H194.097H186.451z"/>
	<path d="M0,65.11v381.78c0,8.173,6.872,14.798,15.045,14.798h127.013V50.312H15.045C6.872,50.312,0,56.937,0,65.11z"/>

</svg>